# xmcd CD database file
#
# Track frame offsets:
#	182
#	9837
#	29807
#	42827
#	53985
#	79780
#	84547
#	124877
#	133137
#	149160
#	159615
#	181695
#	188425
#	196000
#	199350
#	224532
#
# Disc length: 3221 seconds
#
# Revision: 4
# Processed by: cddbd v1.5.2PL0 Copyright (c) Steve Scherf et al.
# Submitted via: CDex 1.99
#
DISCID=e60c9310
DTITLE=Rene Clemencic, Clemencic Consort - Troubadours - Cantigas de Santa Maria CD4
DYEAR=1995
DGENRE=Renaissance
TTITLE0=Cantiga 73 (Instrumentale)
TTITLE1=Cantiga 13: Assi como Jesu Cristo
TTITLE2=Cantiga 370: Loemos muit'a Virgen
TTITLE3=Cantiga 303 (Instrumentale)
TTITLE4=Cantiga 25 (Instrumentale)
TTITLE5=Cantiga 36 (Instrumentale)
TTITLE6=Cantiga 7: Santa Maria amar
TTITLE7=Cantiga 320: Santa Maria leva
TTITLE8=Cantiga 353 (Instrumentale)
TTITLE9=Cantiga 207: Se ome fezer
TTITLE10=Cantiga 79: Ay, Santa Maria
TTITLE11=Cantiga 230 (Instrumentale)
TTITLE12=Cantiga 290 (Instrumentale)
TTITLE13=Cantiga 190 (Instrumentale)
TTITLE14=Cantiga 159: Non sofre Santa Maria
TTITLE15=Cantiga 100 (Version II): Santa Maria, strela do dia
EXTD=1995 YEAR: 1995
EXTT0=
EXTT1=
EXTT2=
EXTT3=
EXTT4=
EXTT5=
EXTT6=
EXTT7=
EXTT8=
EXTT9=
EXTT10=
EXTT11=
EXTT12=
EXTT13=
EXTT14=
EXTT15=
PLAYORDER=
